# xmcd CD database file
#
# Track frame offsets:
#	180
#	15224
#	28800
#	41434
#	55128
#	67500
#	80175
#	91293
#	105148
#	117351
#	130134
#	149273
#	165144
#	178438
#	192420
#	206359
#	218781
#	234755
#	248600
#	259238
#
# Disc length: 3650 seconds
#
# Revision: 0
# Processed by: cddbd v1.5.2PL0 Copyright (c) Steve Scherf et al.
# Submitted via: CDex 1.51
#
DISCID=000e4014
DTITLE=Jazz - Jazz
DYEAR=2005
DGENRE=Jazz
TTITLE0=Django Reinhardt - Swing 39
TTITLE1=Django Reinhardt - Low cotton
TTITLE2=Count Basie - The moon fell in the river
TTITLE3=Count Basie - Five o'clock whistle
TTITLE4=Count Basie - Stampede in G minor
TTITLE5=Count Basie - Who am I ?
TTITLE6=Glenn Miller - Slumber song
TTITLE7=Artie Shaw - Love me a little little
TTITLE8=Glenn Miller - Chip off the old block
TTITLE9=Louis Armstrong - Baby, won't you please come home ?
TTITLE10=Louis Armstrong - Black and blue
TTITLE11=Charlie Parker - Easy to love
TTITLE12=Les Brown - You're my everything
TTITLE13=Les Brown - You're the cream in my coffee
TTITLE14=Les Brown - Deep purple
TTITLE15=Charlie Parker - Tico-tico
TTITLE16=Charlie Parker - Temptation
TTITLE17=Peggy Lee - I'm glad there is you
TTITLE18=Nat King Cole - It's crazy
TTITLE19=Peggy Lee - (Ah, the apple trees) when the world was young
EXTD=YEAR: 2005
EXTT0=
EXTT1=
EXTT2=
EXTT3=
EXTT4=
EXTT5=
EXTT6=
EXTT7=
EXTT8=
EXTT9=
EXTT10=
EXTT11=
EXTT12=
EXTT13=
EXTT14=
EXTT15=
EXTT16=
EXTT17=
EXTT18=
EXTT19=
PLAYORDER=
